<?xml version="1.0" standalone="no"?><!DOCTYPE svg PUBLIC "-//W3C//DTD SVG 1.1//EN" "http://www.w3.org/Graphics/SVG/1.1/DTD/svg11.dtd"><svg t="1588904455339" class="icon" viewBox="0 0 1024 1024" version="1.1" xmlns="http://www.w3.org/2000/svg" p-id="5723" xmlns:xlink="http://www.w3.org/1999/xlink" width="200" height="200"><defs><style type="text/css"></style></defs><path d="M102.4 443.733333m204.8 0l238.933333 0q204.8 0 204.8 204.8l0 0q0 204.8-204.8 204.8l-238.933333 0q-204.8 0-204.8-204.8l0 0q0-204.8 204.8-204.8Z" fill="#FFFFFF" p-id="5724"></path><path d="M741.649067 507.938133c-37.205333-7.0656-19.490133-27.306667-19.490134-27.306666s36.317867-60.245333-7.099733-103.662934c-54.033067-54.033067-185.173333 7.099733-185.173333 7.099734-49.629867 15.0528-36.317867-7.099733-29.252267-46.08 0-45.192533-15.940267-122.2656-149.742933-76.1856-132.9152 45.192533-247.1936 205.550933-247.1936 205.550933-79.735467 106.325333-69.12 187.733333-69.12 187.733333 19.490133 181.623467 212.650667 231.253333 362.3936 242.756267 157.730133 12.424533 370.346667-54.033067 435.029333-191.3856s-53.1456-191.3856-90.350933-198.4512z m-333.141334 339.3536c-156.842667 7.0656-283.511467-71.68-283.511466-176.3328s126.702933-187.733333 283.511466-194.935466 283.511467 56.7296 283.511467 161.245866-126.702933 202.888533-283.511467 209.988267z" fill="#CD3733" p-id="5725"></path><path d="M377.480533 544.290133a148.855467 148.855467 0 0 0-139.946666 166.570667 82.773333 82.773333 0 0 0 42.530133 70.007467 183.466667 183.466667 0 0 0 234.8032-41.642667c47.786667-62.020267 20.48-212.616533-137.3184-194.901333z m-39.867733 207.325867a42.939733 42.939733 0 0 1-53.1456-38.0928 55.944533 55.944533 0 0 1 50.517333-53.1456c33.655467-3.413333 55.842133 15.940267 55.842134 40.7552a56.900267 56.900267 0 0 1-53.179734 50.4832z m93.047467-78.848c-10.6496 7.099733-22.152533 6.212267-27.306667-2.6624a22.7328 22.7328 0 0 1 6.212267-30.139733 19.0464 19.0464 0 0 1 29.252266 2.6624 25.736533 25.736533 0 0 1-7.9872 30.1056z" p-id="5726"></path><path d="M818.722133 444.142933a25.634133 25.634133 0 0 0 24.814934-22.152533c0-0.887467 0.887467-1.774933 0.887466-2.6624 18.602667-172.7488-141.755733-142.6432-141.755733-142.6432a25.7024 25.7024 0 0 0 0 51.4048c115.165867-25.7024 89.463467 90.350933 89.463467 90.350933a25.9072 25.9072 0 0 0 26.589866 25.7024z" fill="#E69C36" p-id="5727"></path><path d="M799.232 142.882133a306.517333 306.517333 0 0 0-128.443733 1.365334c-0.887467 0-2.6624 0.682667-3.413334 0.682666a0.785067 0.785067 0 0 0-0.887466 0.785067 37.956267 37.956267 0 0 0-27.306667 36.283733 37.546667 37.546667 0 0 0 37.205333 37.205334 189.7472 189.7472 0 0 0 34.542934-7.9872 199.714133 199.714133 0 0 1 186.0608 92.16 172.305067 172.305067 0 0 1 11.537066 124.928 101.000533 101.000533 0 0 0-7.9872 36.317866 35.498667 35.498667 0 0 0 38.0928 34.5088c16.827733 0 31.914667 0.853333 35.4304-31.0272h0.887467c61.1328-218.453333-75.298133-302.114133-175.445333-325.154133z" fill="#E69C36" p-id="5728"></path></svg>