<?xml version="1.0" standalone="no"?><!DOCTYPE svg PUBLIC "-//W3C//DTD SVG 1.1//EN" "http://www.w3.org/Graphics/SVG/1.1/DTD/svg11.dtd"><svg t="1588857719288" class="icon" viewBox="0 0 1024 1024" version="1.1" xmlns="http://www.w3.org/2000/svg" p-id="4065" xmlns:xlink="http://www.w3.org/1999/xlink" width="200" height="200"><defs><style type="text/css"></style></defs><path d="M619.52 707.584H133.12V501.76c0-112.64 91.136-203.776 203.776-203.776H890.88v138.24c0 150.528-121.856 271.36-271.36 271.36z" fill="#FF3514" p-id="4066"></path><path d="M619.52 738.304H102.4V501.76c0-129.024 105.472-234.496 234.496-234.496H921.6v168.96c0 166.912-135.168 302.08-302.08 302.08z m-455.68-61.44h455.68c133.12 0 240.64-107.52 240.64-240.64V328.704H336.896C241.664 328.704 163.84 406.528 163.84 501.76v175.104z" fill="#FFFFFF" p-id="4067"></path><path d="M334.848 578.56h-31.744V429.056h31.744v58.368h56.32v-58.368h31.744v148.48h-31.744V512h-57.344v66.56zM518.144 579.584c-47.104-1.024-70.656-26.624-71.68-75.776 1.024-50.176 24.576-76.8 71.68-77.824 45.056 2.048 69.632 27.648 70.656 77.824-2.048 50.176-25.6 74.752-70.656 75.776z m0-130.048c-25.6 0-37.888 18.432-37.888 54.272-1.024 36.864 12.288 54.272 37.888 54.272 24.576 0 36.864-18.432 36.864-54.272s-12.288-54.272-36.864-54.272zM600.064 454.656V430.08h120.832v24.576H675.84v123.904h-31.744V454.656h-44.032z" fill="#FFFFFF" p-id="4068"></path></svg>