<?xml version="1.0" standalone="no"?><!DOCTYPE svg PUBLIC "-//W3C//DTD SVG 1.1//EN" "http://www.w3.org/Graphics/SVG/1.1/DTD/svg11.dtd"><svg t="1589168538969" class="icon" viewBox="0 0 1024 1024" version="1.1" xmlns="http://www.w3.org/2000/svg" p-id="2629" xmlns:xlink="http://www.w3.org/1999/xlink" width="200" height="200"><defs><style type="text/css"></style></defs><path d="M155.2 567.496c8.26 17.487 20.727 32.789 36.283 44.87 67.542 52.516 162.998 55.961 233.988 8.522 5.693-3.8 11.097-7.804 16.161-12.004 21.789-18.016 36.282-43.758 41.81-72.612 2.1-10.964-5.085-21.554-16.049-23.655-10.964-2.1-21.554 5.085-23.655 16.049-3.814 19.909-13.576 37.248-27.888 49.081-3.98 3.302-8.263 6.475-12.83 9.523-56.518 37.768-132.927 35.01-186.732-6.823-10.631-8.257-19.035-18.573-24.535-30.217-16.098-34.077-6.172-76.118 23.312-99.654 23.46-18.72 52.36-30.557 82.265-33.748 41.446-4.4 84.01 7.697 115.684 33.242 3.909 3.162 6.725 5.665 9.14 8.183 11.624 12.112 32.092 5.595 34.574-11.007 4.108-27.472 7.397-49.45 14.796-98.897 7.4-49.45 10.688-71.427 14.796-98.902 2.325-15.523 4.183-27.945 8.365-55.895l0.678-4.532c3.508-23.448 5.504-36.794 7.686-51.36a19581.15 19581.15 0 0 1 4.284-28.618c3.756 0.93 7.492 1.936 11.19 3.07 85.474 26.276 145.233 106.186 150.804 194.588-40.93-29.916-91.418-45.447-142.11-42.836-11.148 0.574-19.72 10.076-19.146 21.225 0.574 11.148 10.076 19.72 21.225 19.146 50.483-2.6 101.02 16.979 137.265 53.12a182.356 182.356 0 0 1 6.488 6.787c11.58 12.736 32.762 6.092 34.996-10.974 16.128-123.217-60.067-243.553-177.653-279.7a251.427 251.427 0 0 0-32.91-7.719c-16.313-2.683-26.452 7.429-27.825 21.417-0.715 5.265-0.715 5.265-1.249 8.843l-1.07 7.163a20296.636 20296.636 0 0 0-4.268 28.518c-2.18 14.55-4.177 27.899-7.684 51.349l-0.679 4.532c-4.18 27.946-6.038 40.367-8.364 55.893-4.109 27.477-7.397 49.454-14.796 98.902l-9.634 64.384c-37.639-24.121-83.73-34.912-128.86-30.12-37.55 4.006-73.713 18.818-103.202 42.35-44.084 35.19-58.78 97.437-34.65 148.516z" fill="#D81E06" p-id="2630"></path><path d="M251.296 279.403V206.03h121.091c11.164 0 20.213-9.049 20.213-20.212s-9.05-20.212-20.213-20.212H231.084c-11.163 0-20.212 9.049-20.212 20.212v93.585c0 11.163 9.049 20.212 20.212 20.212s20.212-9.05 20.212-20.212zM755.13 800.092H348.75c-11.162 0-20.211 9.05-20.211 20.213s9.049 20.212 20.212 20.212h406.38c11.163 0 20.212-9.049 20.212-20.212s-9.05-20.213-20.213-20.213z" fill="#D81E06" p-id="2631"></path><path d="M861.724 165.606h-71.008c-11.163 0-20.212 9.049-20.212 20.212s9.049 20.212 20.212 20.212h50.796v712.037H251.296V750.161c0-11.163-9.049-20.212-20.212-20.212s-20.212 9.049-20.212 20.212V938.28c0 11.163 9.049 20.212 20.212 20.212h615.1c-0.129 0 0.426 0.053 2.207 0.257 1.147 0.13 1.733 0.193 2.513 0.266 5.031 0.469 8.918 0.423 13.418-0.823 10.076-2.79 17.614-11.347 17.614-22.915V185.818c0-11.163-9.049-20.212-20.212-20.212z" fill="#D81E06" p-id="2632"></path><path d="M755.13 682.84H480.832c-11.163 0-20.212 9.049-20.212 20.212 0 11.164 9.049 20.213 20.212 20.213H755.13c11.164 0 20.213-9.05 20.213-20.213s-9.05-20.212-20.213-20.212z" fill="#D81E06" p-id="2633"></path></svg>