<?xml version="1.0" standalone="no"?><!DOCTYPE svg PUBLIC "-//W3C//DTD SVG 1.1//EN" "http://www.w3.org/Graphics/SVG/1.1/DTD/svg11.dtd"><svg t="1588857698734" class="icon" viewBox="0 0 1024 1024" version="1.1" xmlns="http://www.w3.org/2000/svg" p-id="3166" xmlns:xlink="http://www.w3.org/1999/xlink" width="200" height="200"><defs><style type="text/css"></style></defs><path d="M286.15624999 319.06249999h452.25000002c106.59375001 0 192.93750001 86.34374998 192.93749998 192.93750001 0 106.59375001-86.34374998 192.93750001-192.93749998 192.93750001H286.15624999c-106.59375001 0-192.93750001-86.34374998-192.93750001-192.93750001 0-106.59375001 86.34374998-192.93750001 192.93750001-192.93750001z" fill="#ffffff" p-id="3167"></path><path d="M428.86096191 605.0267334h-39.71557616c-24.14245607-51.99279787-45.81298829-104.47998047-65.09399419-157.62634278l2.30712893 63.03405763v94.59228513h-36.17248533V401.83459472h51.663208c17.55065918 37.9852295 34.93652345 80.66711426 52.23999023 128.12805177l-2.05993652-62.45727539v-65.67077638H428.77856445v203.19213868zM590.27758789 437.100708H505.57299805v51.41601564h84.04541012v29.16870117h-84.04541012v52.56958009h83.79821778v35.01892089H461.24316406V401.83459472H590.27758789v35.26611329z m170.39794922-35.26611328l-18.37463379 203.43933107h-33.28857421l-17.55065919-110.33020021-17.55065917 110.33020021h-33.53576661l-18.12744141-203.43933107h37.32604981l2.05993652 82.89184571h5.52062989l4.11987305-82.89184571h39.96276855l4.11987304 83.46862794h5.52062988l2.30712891-83.46862794h37.49084473z" fill="#89cc4f" p-id="3168"></path></svg>