<?xml version="1.0" standalone="no"?><!DOCTYPE svg PUBLIC "-//W3C//DTD SVG 1.1//EN" "http://www.w3.org/Graphics/SVG/1.1/DTD/svg11.dtd"><svg t="1588819781240" class="icon" viewBox="0 0 1024 1024" version="1.1" xmlns="http://www.w3.org/2000/svg" p-id="7826" width="200" height="200" xmlns:xlink="http://www.w3.org/1999/xlink"><defs><style type="text/css"></style></defs><path d="M983.521524 312.696823A512.08009 512.08009 0 0 0 511.903455 0.00117a507.004052 507.004052 0 0 0-199.208897 40.30111A511.524213 511.524213 0 0 0 0.159817 511.744808a506.140979 506.140979 0 0 0 40.30111 199.384438 513.455155 513.455155 0 0 0 272.233631 272.555455 511.99232 511.99232 0 0 0 711.128076-471.778981 502.483891 502.483891 0 0 0-40.30111-199.223526z m-44.64573 379.576477a460.895487 460.895487 0 0 1-99.472794 147.322133 461.480621 461.480621 0 0 1-327.675085 135.882762 463.470077 463.470077 0 0 1-327.675085-791.072019 461.480621 461.480621 0 0 1 327.675085-135.882762 461.480621 461.480621 0 0 1 327.675085 135.882762 461.480621 461.480621 0 0 1 135.882762 327.675084 459.227854 459.227854 0 0 1-36.424597 180.206669z m0 0" fill="#ffffff" p-id="7827"></path><path d="M327.67399 788.878937L710.585732 514.626594 327.67399 245.640457z m0 0" fill="#ffffff" p-id="7828"></path></svg>