<?xml version="1.0" standalone="no"?><!DOCTYPE svg PUBLIC "-//W3C//DTD SVG 1.1//EN" "http://www.w3.org/Graphics/SVG/1.1/DTD/svg11.dtd"><svg t="1588857011043" class="icon" viewBox="0 0 1024 1024" version="1.1" xmlns="http://www.w3.org/2000/svg" p-id="2258" xmlns:xlink="http://www.w3.org/1999/xlink" width="200" height="200"><defs><style type="text/css"></style></defs><path d="M512 0a512 512 0 1 0 512 512A512 512 0 0 0 512 0z m0 955.733333a443.733333 443.733333 0 1 1 443.733333-443.733333 443.733333 443.733333 0 0 1-443.733333 443.733333z" fill="#bfbfbf" p-id="2259"></path><path d="M692.736 471.210667l-268.629333-154.965334a46.933333 46.933333 0 0 0-70.485334 40.618667v310.272a46.933333 46.933333 0 0 0 70.485334 40.618667l268.629333-154.965334a47.104 47.104 0 0 0 0-81.578666z" fill="#bfbfbf" p-id="2260"></path></svg>