<?xml version="1.0" standalone="no"?><!DOCTYPE svg PUBLIC "-//W3C//DTD SVG 1.1//EN" "http://www.w3.org/Graphics/SVG/1.1/DTD/svg11.dtd"><svg t="1588904427217" class="icon" viewBox="0 0 1024 1024" version="1.1" xmlns="http://www.w3.org/2000/svg" p-id="4848" xmlns:xlink="http://www.w3.org/1999/xlink" width="200" height="200"><defs><style type="text/css"></style></defs><path d="M0 0m512 0l0 0q512 0 512 512l0 0q0 512-512 512l0 0q-512 0-512-512l0 0q0-512 512-512Z" fill="#FFFFFF" p-id="4849"></path><path d="M748.672 642.517333s-16.896 46.378667-47.914667 88.064c0 0 55.338667 18.944 50.773334 68.096 0 0 1.792 54.912-118.442667 51.157334 0 0-84.522667-6.613333-109.909333-42.581334h-22.357334c-25.344 36.010667-109.909333 42.581333-109.909333 42.581334-120.277333 3.797333-118.357333-51.157333-118.357333-51.157334-4.693333-49.152 50.730667-68.096 50.730666-68.096a393.258667 393.258667 0 0 1-47.914666-88.064c-75.178667 122.112-67.669333-17.066667-67.669334-17.066666 14.08-82.346667 73.301333-136.234667 73.301334-136.234667-8.448-74.752 22.528-88.064 22.528-88.064 6.485333-231.296 204.330667-227.242667 208.469333-227.157333 4.181333-0.085333 201.941333-4.138667 208.469333 227.157333 0 0 31.018667 13.226667 22.528 88.064 0 0 59.178667 53.930667 73.258667 136.234667 0.042667 0 7.552 139.178667-67.584 17.066666z" fill="#4BAEE8" p-id="4850"></path></svg>