<?xml version="1.0" standalone="no"?><!DOCTYPE svg PUBLIC "-//W3C//DTD SVG 1.1//EN" "http://www.w3.org/Graphics/SVG/1.1/DTD/svg11.dtd"><svg t="1588818510027" class="icon" viewBox="0 0 1024 1024" version="1.1" xmlns="http://www.w3.org/2000/svg" p-id="4031" xmlns:xlink="http://www.w3.org/1999/xlink" width="200" height="200"><defs><style type="text/css"></style></defs><path d="M511.488062 1024A513.055934 513.055934 0 0 0 1024.416004 511.52003a34.365852 34.365852 0 0 0-68.7957 0A443.172302 443.172302 0 1 1 512.448002 68.731704 34.365852 34.365852 0 1 0 512.448002 0a511.968002 511.968002 0 0 0-0.95994 1023.936004z" fill="#666666" p-id="4032"></path><path d="M732.402255 239.089057c-200.947441 0-287.022061 103.03356-287.022061 346.026373v4.991688a34.621836 34.621836 0 0 0 68.987688-4.991688c0-204.787201 57.020436-276.974689 219.058309-276.974689h81.018936l-30.014124 30.014124a34.621836 34.621836 0 1 0 48.95694 48.956941l78.011125-78.011125a51.1968 51.1968 0 0 0 0-70.971564l-78.011125-78.011124a34.365852 34.365852 0 0 0-47.997 49.020936l27.006312 30.014124h-79.995z" fill="#666666" p-id="4033"></path></svg>