<?xml version="1.0" standalone="no"?><!DOCTYPE svg PUBLIC "-//W3C//DTD SVG 1.1//EN" "http://www.w3.org/Graphics/SVG/1.1/DTD/svg11.dtd"><svg t="1588904544955" class="icon" viewBox="0 0 1024 1024" version="1.1" xmlns="http://www.w3.org/2000/svg" p-id="9759" xmlns:xlink="http://www.w3.org/1999/xlink" width="200" height="200"><defs><style type="text/css"></style></defs><path d="M385.422222 148.764444c-43.804444 8.817778-53.475556 15.928889-53.475555 42.666667 0 22.471111 0 22.471111 47.217777 16.213333 62.577778-9.955556 219.875556-6.257778 247.466667 5.404445s43.804444 34.702222 50.062222 91.022222c7.111111 62.577778-12.515556 85.333333-69.688889 85.333333l-142.222222 4.551112c-130.56 4.551111-135.964444 0-137.671111-98.133334a310.328889 310.328889 0 0 0-7.111111-75.093333c-9.671111-16.213333-39.253333-11.662222-50.062222 7.111111a386.275556 386.275556 0 0 0-1.706667 152.746667c10.524444 56.888889 30.435556 74.24 85.333333 78.506666 42.097778 3.697778 48.355556 6.257778 38.4 17.066667-25.031111 30.151111-111.502222 65.137778-164.124444 65.137778-42.097778 0-61.724444 17.066667-52.906667 44.657778s66.275556 25.031111 168.96-11.662223a392.817778 392.817778 0 0 0 128.568889-102.4c15.075556-23.324444 17.066667-24.177778 104.391111-23.324444 108.942222 0 142.222222-9.955556 160.995556-53.475556a162.417778 162.417778 0 0 0 3.413333-118.897777c-21.902222-91.875556-34.133333-105.528889-110.08-124.871112a969.386667 969.386667 0 0 0-245.76-2.56z" fill="#d81e06" p-id="9760"></path><path d="M383.715556 280.746667a38.684444 38.684444 0 0 0-5.404445 26.737777c2.56 14.506667 14.222222 16.213333 113.777778 16.213334h111.502222l2.844445-24.177778c3.413333-28.444444 9.671111-26.737778-116.906667-28.444444-66.275556 0-100.124444 2.844444-106.382222 9.955555zM538.168889 471.893333c-15.928889 6.257778-19.626667 13.368889-15.928889 30.435556s-6.257778 28.444444-95.573333 88.462222a650.24 650.24 0 0 1-152.746667 81.066667c-99.271111 28.444444-117.76 42.951111-93.866667 71.395555 37.546667 44.657778 203.662222-39.253333 382.293334-193.706666 38.4-32.995556 72.248889-31.288889 89.315555 3.697777a36.124444 36.124444 0 0 0 40.96 24.746667c64.284444 0 85.333333 74.24 37.546667 142.222222s-126.862222 97.28-182.897778 68.835556c-25.031111-13.653333-28.444444-13.653333-32.995555 0-7.395556 17.066667 10.524444 60.871111 32.995555 81.351111 33.848889 30.435556 133.688889 0 205.368889-65.137778a162.133333 162.133333 0 0 0 65.137778-124.871111 194.275556 194.275556 0 0 0-170.666667-204.515555c-23.04-2.844444-51.768889-6.257778-64.284444-7.111112a99.271111 99.271111 0 0 0-43.804445 4.266667z" fill="#d81e06" p-id="9761"></path><path d="M575.715556 630.044444c-120.604444 95.573333-222.435556 152.462222-321.422223 179.484445C195.982222 824.888889 192.568889 881.777778 249.742222 881.777778c34.702222 0 134.826667-42.951111 189.155556-81.351111a210.204444 210.204444 0 0 1 65.422222-34.702223 14.222222 14.222222 0 0 0 15.075556-11.662222 191.146667 191.146667 0 0 1 50.915555-56.888889c83.057778-71.395556 85.333333-74.24 73.386667-89.315555s-19.626667-15.928889-67.982222 21.617778z" fill="#d81e06" p-id="9762"></path></svg>