<?xml version="1.0" standalone="no"?><!DOCTYPE svg PUBLIC "-//W3C//DTD SVG 1.1//EN" "http://www.w3.org/Graphics/SVG/1.1/DTD/svg11.dtd"><svg t="1588818454315" class="icon" viewBox="0 0 1024 1024" version="1.1" xmlns="http://www.w3.org/2000/svg" p-id="2426" xmlns:xlink="http://www.w3.org/1999/xlink" width="200" height="200"><defs><style type="text/css"></style></defs><path d="M512 62A450 450 0 1 1 62 512 450 450 0 0 1 512 62z" fill="#F5F5F5" p-id="2427"></path><path d="M744.23750029 455.7500003l-8.17500058 4.3875 8.17500058-5.02500059-1.87500058-3.74999941a2.21249971 2.21249971 0 0 0-0.63749971-1.27500029 0.60000029 0.60000029 0 0 1-0.63749971-0.63749971 2.21249971 2.21249971 0 0 0-0.63750058-1.27500029l-0.63749971-0.63749971-0.63749971-0.63750059-1.87500058-1.8749997a30.56249971 30.56249971 0 0 0-8.81249942-6.93749971l-285.00000029-164.25c-0.63749971-0.63749971-1.27500029-0.63749971-1.87499971-1.27500029-0.86249971-0.07499971-1.35-0.5625-1.98750058-0.5625a1.98749971 1.98749971 0 0 0-1.87499971 0c-0.63749971 0-1.27500029-0.63749971-1.87499971-0.63749971l-3.15-1.27500029-10.08750058-1.2750003h-5.02499971A52.2 52.2 0 0 0 398.07500029 275.7500003l-1.87500058 1.27499941L389.89999971 283.25000001a2.21249971 2.21249971 0 0 1-0.63749971 1.27500029l-1.27500029 1.87499971a40.05 40.05 0 0 0-7.49999971 23.9249997v331.5750003l1.27500029 6.9374997a2.32499971 2.32499971 0 0 1 0.63749971 1.87500059v0.63749971c0 0.63749971 0.63749971 1.27500029 0.63749971 1.8749997a34.9875 34.9875 0 0 0 5.66250029 10.6875v0.63750059a2.3625 2.3625 0 0 1 1.27500029 1.27499941 2.3625 2.3625 0 0 1 1.27499942 1.2750003l1.27500029 1.27500029L399.5 661.99999971l-6.3 6.93750059L399.5 674.0000003a40.68749971 40.68749971 0 0 0 18.1125 6.75h5.02499971l11.25-1.27500029c0.63749971 0 1.27500029-0.63749971 1.87500058-0.63749971a2.32499971 2.32499971 0 0 0 1.87499971-0.63750059c0.63749971 0 1.27500029-0.63749971 1.87499971-0.6374997 0.63749971-0.63749971 1.27500029-0.63749971 1.87500058-1.2750003a2.21249971 2.21249971 0 0 0 1.27499942-0.6374997l0.63750058-0.63749971 283.95-163.38750029a52.12500029 52.12500029 0 0 0 9.45-6.93749971l1.27499942-1.27500029a2.21249971 2.21249971 0 0 1 0.63750058-1.2750003l6.93749971-10.6875c0-0.63749971 0.63749971-1.27500029 0.63749971-1.8749997a49.05 49.05 0 0 0 2.51250029-13.2000003v-1.8749997a33.75 33.75 0 0 0-2.51250029-13.8375z m-11.25 30.22499971h0.63749971l4.3875 1.27500029z m-3.15-10.08749971a31.6125 31.6125 0 0 1-1.27500029 7.49999971l-0.63749971 1.27500029v0.63749971h-0.675l-1.27500029 2.51250029 8.17499971 5.02499971-8.17499971-4.3875-2.51250029 2.51250029a34.91250029 34.91250029 0 0 1-5.02499971 3.74999941L433.25 658.88750001l-3.15 1.27500029-3.15 0.63749971 1.87499971 9.45-2.51249942-8.8125003-3.15 0.63750059 0.63749971 9.45-1.27500029-8.81250029V661.99999971h-2.39999942c-3.75000029-0.63749971-6.93749971-1.87499971-10.05000029-2.51249941l-1.9125-1.2375-6.3 6.93749971 5.66250029-7.49999971-0.52500058-0.675-6.93749971 6.3 6.1875-6.93750059-1.87499971-2.51249941a29.3625 29.3625 0 0 1-3.15-6.3l-1.27500029-5.66250029-9.45 0.6374997 9.45-1.27499941V310.25000001a23.7375 23.7375 0 0 1 4.42500029-13.23749971l3.74999942-4.3875-5.66249942-7.50000059 6.3 6.93750059 0.63749971-0.63750059a27.7875 27.7875 0 0 1 10.08749971-3.74999941h5.02500058l1.2375-9.52500059v9.41250059l1.87499971-9.45-0.60000029 10.08749971 5.02500058 1.27500029 287.02499942 165.52499941a34.9875 34.9875 0 0 1 5.02500058 3.7500003l1.27499942 1.27500029 7.50000058-5.66250029-6.93750058 6.3v1.27500029l8.17500058-5.02500059-7.50000058 5.6625003v0.675l8.17500058-4.3875-7.50000058 5.66250029 8.81250029-3.75000029-8.17499971 5.0249997 0.5625 1.20000059a31.57499971 31.57499971 0 0 1 1.27499942 7.49999971l9.45 0.6374997zM512 24.50000001C264.01249971 24.50000001 62 226.51249971 62 474.50000001s202.01249971 450 450 450 450-202.01249971 450-450S759.98750029 24.50000001 512 24.50000001z m0 881.25000029a431.25000029 431.25000029 0 1 1 431.25000029-431.25000029 431.25000029 431.25000029 0 0 1-431.25000029 431.25000029z" fill="#2c2c2c" p-id="2428"></path></svg>