<?xml version="1.0" standalone="no"?><!DOCTYPE svg PUBLIC "-//W3C//DTD SVG 1.1//EN" "http://www.w3.org/Graphics/SVG/1.1/DTD/svg11.dtd"><svg t="1588818483498" class="icon" viewBox="0 0 1024 1024" version="1.1" xmlns="http://www.w3.org/2000/svg" p-id="3240" xmlns:xlink="http://www.w3.org/1999/xlink" width="200" height="200"><defs><style type="text/css"></style></defs><path d="M959.5 513c0-3.5-0.1-6.9-0.1-10.3 0-0.9 0-1.8-0.1-2.7-0.1-3-0.2-6.1-0.3-9.1 0-0.4 0-0.8-0.1-1.2-0.2-3.5-0.4-7-0.7-10.5 0-0.5-0.1-1-0.1-1.6-0.3-3.3-0.5-6.5-0.9-9.8 0-0.3-0.1-0.5-0.1-0.8-6.9-67.3-28.7-130.2-62.1-185.4l-0.9-1.5c-0.2-0.3-58.4-98.6-153.2-151.6-0.2-0.2-0.5-0.3-0.7-0.5-1.1-0.7-2.2-1.3-3.4-2-0.3-0.2-0.5-0.3-0.8-0.5-66-39.4-142.9-62.1-225.1-62.1-116 0-221.5 45.1-300.7 119C120.7 264.3 64.5 382.1 64.5 513c0 3.5 0.1 6.9 0.1 10.3 0 0.9 0 1.8 0.1 2.7 0.1 3 0.2 6.1 0.3 9.1 0 0.4 0 0.8 0.1 1.2 0.2 3.5 0.4 7 0.7 10.5 0 0.5 0.1 1 0.1 1.6 0.3 3.3 0.5 6.5 0.9 9.8 0 0.3 0.1 0.5 0.1 0.8 6.9 67.3 28.7 130.2 62.1 185.4l0.9 1.5 2.4 3.9c14.2 21.6 33.4 24.1 51.2 10.5 16.7-14.9 11.6-32.4 6.9-41.6-1.2-1.9-2.5-3.9-3.7-5.8l-0.2-0.2c-32.9-50.5-56.4-119-56.4-192.6l3.4-57.8c24.8-186.8 184.8-331 378.4-331 2.9 0 5.8 0 8.7 0.1 0.8 0 1.6 0 2.4 0.1l7.2 0.3c0.5 0 1.1 0 1.6 0.1 2.8 0.1 5.7 0.3 8.5 0.5 0.7 0.1 1.4 0.1 2.1 0.2 2.3 0.2 4.6 0.4 6.8 0.6 0.7 0.1 1.4 0.1 2.1 0.2l8.4 0.9c0.4 0.1 0.9 0.1 1.3 0.2 2.4 0.3 4.8 0.6 7.2 1 0.8 0.1 1.5 0.2 2.3 0.3 2.6 0.4 5.2 0.8 7.8 1.3 0.2 0 0.4 0.1 0.6 0.1 2.8 0.5 5.5 1 8.3 1.6 0.7 0.1 1.4 0.3 2.1 0.4 2.3 0.5 4.5 1 6.8 1.5 0.5 0.1 1.1 0.2 1.6 0.4 2.7 0.6 5.4 1.3 8.1 2 0.6 0.1 1.1 0.3 1.7 0.4l6.6 1.8c0.7 0.2 1.3 0.4 2 0.5 2.7 0.8 5.4 1.5 8 2.4 0.2 0.1 0.4 0.1 0.6 0.2 2.5 0.8 4.9 1.5 7.3 2.4 0.7 0.2 1.3 0.4 2 0.7 2.4 0.8 4.8 1.7 7.2 2.5 0.2 0.1 0.4 0.1 0.6 0.2 2.6 1 5.2 1.9 7.8 2.9 0.6 0.2 1.1 0.4 1.7 0.7 2.2 0.9 4.4 1.7 6.6 2.7 0.5 0.2 0.9 0.4 1.4 0.6 2.6 1.1 5.2 2.2 7.7 3.3 0.4 0.2 0.7 0.3 1 0.5 2.2 1 4.5 2 6.7 3.1 0.5 0.2 1 0.5 1.6 0.7 5.1 2.4 10.1 5 15 7.6 0.5 0.3 0.9 0.5 1.4 0.8 2.3 1.3 4.7 2.5 7 3.9 0.1 0.1 0.2 0.1 0.3 0.2 2.5 1.4 14.3 9.2 17.2 10.6C822.8 260.2 892 378.2 892 514.9c0 53.8-10.8 105-30.4 151.6C802.5 800.9 668.2 894.7 512 894.7c-2.9 0-5.8 0-8.7-0.1-0.8 0-1.6 0-2.4-0.1l-7.2-0.3c-0.5 0-1.1 0-1.6-0.1-2.8-0.1-5.7-0.3-8.5-0.5-0.7-0.1-1.4-0.1-2.1-0.2-2.3-0.2-4.6-0.4-6.8-0.6-0.7-0.1-1.4-0.1-2.1-0.2l-8.4-0.9c-0.4-0.1-0.9-0.1-1.3-0.2-2.4-0.3-4.8-0.6-7.2-1-0.8-0.1-1.5-0.2-2.3-0.3-2.6-0.4-5.2-0.8-7.8-1.3-0.2 0-0.4-0.1-0.6-0.1-2.8-0.5-5.5-1-8.3-1.6-0.7-0.1-1.4-0.3-2.1-0.4-2.3-0.5-4.5-1-6.8-1.5-0.5-0.1-1.1-0.2-1.6-0.4-2.7-0.6-5.4-1.3-8.1-2-0.6-0.1-1.1-0.3-1.7-0.4l-6.6-1.8c-0.7-0.2-1.3-0.4-2-0.5-2.7-0.8-5.4-1.5-8-2.4-0.2-0.1-0.4-0.1-0.6-0.2-2.5-0.8-4.9-1.5-7.3-2.4-0.7-0.2-1.3-0.4-2-0.7-2.4-0.8-4.8-1.7-7.2-2.5-0.2-0.1-0.4-0.1-0.6-0.2-2.6-1-5.2-1.9-7.8-2.9-0.6-0.2-1.1-0.4-1.7-0.7-2.2-0.9-4.4-1.7-6.6-2.7-0.5-0.2-0.9-0.4-1.4-0.6-2.6-1.1-5.2-2.2-7.7-3.3-0.4-0.2-0.7-0.3-1.1-0.5-2.2-1-4.5-2-6.7-3.1-0.5-0.2-1-0.5-1.6-0.7-5.1-2.4-10.1-5-15-7.6-0.5-0.3-0.9-0.5-1.4-0.8-2.3-1.3-4.7-2.5-7-3.9-0.1-0.1-0.2-0.1-0.3-0.2-2.5-1.4-5-2.9-7.4-4.3-0.3-0.2-0.7-0.4-1-0.6-1.1-0.6-2.2-1.3-3.2-1.9 0 0-23.5-10.9-40.8 9.7-4 4-18.1 30.2 12.4 49.9 1.1 0.7 2.2 1.3 3.4 2 49.2 28.5 104.2 48.1 162.9 56.3 0.4 0.1 0.8 0.1 1.2 0.2l6.6 0.9c1 0.1 2.1 0.2 3.1 0.4 2.9 0.3 5.9 0.6 8.9 0.9 1.8 0.2 3.6 0.3 5.5 0.5l4.2 0.3 8.7 0.6c0.7 0 1.4 0.1 2.1 0.1l8.7 0.3c0.9 0 1.9 0.1 2.8 0.1 3.4 0.1 6.8 0.1 10.2 0.1 23.8 0 47.1-1.9 69.9-5.5 0 0 163.8-16.7 280.3-163.5 60.6-76.3 97.2-173 97.2-278.3z" fill="#757575" p-id="3241"></path><path d="M472 553l-1.5 194.5c-0.2 21.9 17.6 39.6 39.4 39.4 21.9-0.2 39.9-18.2 40-40l1.5-194.5 194.5-1.5c21.9-0.2 39.9-18.2 40-40s-17.6-39.6-39.4-39.4L552 473l1.5-194.5c0.2-21.9-17.6-39.6-39.4-39.4-21.9 0.2-39.9 18.2-40 40l-1.5 194.5-194.5 1.4c-21.9 0.2-39.9 18.2-40 40-0.2 21.9 17.6 39.6 39.4 39.4L472 553z" fill="#757575" p-id="3242"></path></svg>