<?xml version="1.0" standalone="no"?><!DOCTYPE svg PUBLIC "-//W3C//DTD SVG 1.1//EN" "http://www.w3.org/Graphics/SVG/1.1/DTD/svg11.dtd"><svg t="1588818542718" class="icon" viewBox="0 0 1024 1024" version="1.1" xmlns="http://www.w3.org/2000/svg" p-id="5687" xmlns:xlink="http://www.w3.org/1999/xlink" width="200" height="200"><defs><style type="text/css"></style></defs><path d="M272 457.6m-64 0a64 64 0 1 0 128 0 64 64 0 1 0-128 0Z" fill="#707070" p-id="5688"></path><path d="M576 457.6c0-35.2-28.8-60.8-64-60.8s-64 28.8-64 60.8c0 35.2 28.8 60.8 64 60.8s64-28.8 64-60.8z" fill="#707070" p-id="5689"></path><path d="M752 457.6m-64 0a64 64 0 1 0 128 0 64 64 0 1 0-128 0Z" fill="#707070" p-id="5690"></path><path d="M944 32h-864C35.2 32 0 70.4 0 118.4v608c0 48 35.2 86.4 80 86.4h243.2c19.2 0 32-12.8 32-32s-12.8-32-32-32H80c-6.4 0-16-9.6-16-22.4v-608c0-12.8 9.6-22.4 16-22.4h864c6.4 0 16 9.6 16 22.4v608c0 12.8-9.6 22.4-16 22.4H534.4c-19.2 0-38.4 6.4-54.4 22.4l-179.2 166.4c-12.8 12.8-12.8 32-3.2 44.8 6.4 6.4 16 9.6 22.4 9.6 6.4 0 16-3.2 22.4-9.6l179.2-166.4c3.2-3.2 6.4-3.2 9.6-3.2h409.6c44.8 0 80-38.4 80-86.4v-608c3.2-48-32-86.4-76.8-86.4z" fill="#707070" p-id="5691"></path></svg>