<?xml version="1.0" standalone="no"?><!DOCTYPE svg PUBLIC "-//W3C//DTD SVG 1.1//EN" "http://www.w3.org/Graphics/SVG/1.1/DTD/svg11.dtd"><svg t="1590564505037" class="icon" viewBox="0 0 1024 1024" version="1.1" xmlns="http://www.w3.org/2000/svg" p-id="1139" xmlns:xlink="http://www.w3.org/1999/xlink" width="200" height="200"><defs><style type="text/css"></style></defs><path d="M301.392 805.072v53.856a20 20 0 0 1-33.056 15.104l-117.76-101.84a20 20 0 0 1 0-30.24l117.76-101.84a20 20 0 0 1 33.056 15.12v53.84h332.288c89.344 0 161.856-72.8 161.856-162.72v-9.6a48 48 0 1 1 96 0v9.6c0 142.832-115.408 258.72-257.856 258.72H301.392z m437.216-570.144v-53.856a20 20 0 0 1 33.056-15.104l117.76 101.84a20 20 0 0 1 0 30.24l-117.76 101.84a20 20 0 0 1-33.056-15.12v-53.84H406.32c-89.344 0-161.856 72.8-161.856 162.72v9.6a48 48 0 0 1-96 0v-9.6c0-142.832 115.408-258.72 257.856-258.72h332.288z" p-id="1140" fill="#e6e6e6"></path></svg>