<?xml version="1.0" standalone="no"?><!DOCTYPE svg PUBLIC "-//W3C//DTD SVG 1.1//EN" "http://www.w3.org/Graphics/SVG/1.1/DTD/svg11.dtd"><svg t="1590474781597" class="icon" viewBox="0 0 1024 1024" version="1.1" xmlns="http://www.w3.org/2000/svg" p-id="3239" xmlns:xlink="http://www.w3.org/1999/xlink" width="200" height="200"><defs><style type="text/css"></style></defs><path d="M512.000512 0.023536C229.232027 0.023536 0.004093 229.242078 0.004093 511.99693s229.227934 511.978511 511.996418 511.978511c282.765414 0 511.995395-229.220588 511.995395-511.975441C1023.995907 229.242078 794.765926 0.023536 512.000512 0.023536zM512.000512 984.589408c-261.018243 0-472.613889-211.584929-472.613889-472.590432 0-261.007549 211.595646-472.593502 472.613889-472.593502 261.019267 0 472.612866 211.586976 472.612866 472.593502S773.015685 984.589408 512.000512 984.589408zM433.230336 334.776669c-10.86591 0-19.692288 8.80555-19.692288 19.691481l0 315.062676c0 10.884908 8.826378 19.690458 19.692288 19.690458 10.866934 0 19.693311-8.80555 19.693311-19.690458L452.923648 354.468151C452.922624 343.583243 444.09727 334.776669 433.230336 334.776669zM630.153216 334.776669c-10.864887 0-19.691265 8.80555-19.691265 19.691481l0 315.062676c0 10.884908 8.826378 19.690458 19.691265 19.690458s19.691265-8.80555 19.691265-19.690458L649.844481 354.468151C649.844481 343.583243 641.018103 334.776669 630.153216 334.776669z" p-id="3240" fill="#e6e6e6"></path></svg>