<?xml version="1.0" standalone="no"?><!DOCTYPE svg PUBLIC "-//W3C//DTD SVG 1.1//EN" "http://www.w3.org/Graphics/SVG/1.1/DTD/svg11.dtd"><svg t="1590564536292" class="icon" viewBox="0 0 1024 1024" version="1.1" xmlns="http://www.w3.org/2000/svg" p-id="2728" xmlns:xlink="http://www.w3.org/1999/xlink" width="200" height="200"><defs><style type="text/css"></style></defs><path d="M94.091439 317.868674h826.412794c1.565381 0 3.046472-0.313076 4.575729-0.457573 1.613547 0.156538 3.215052 0.457573 4.816557 0.457573a48.165569 48.165569 0 0 0 34.065099-82.218627L804.003763 75.644026a48.165569 48.165569 0 0 0-68.130198 68.118157l77.775353 77.787394H94.091439a48.165569 48.165569 0 0 0 0 96.319097zM925.104045 706.600941c-1.541298-0.144497-3.022389-0.457573-4.58777-0.457573H94.091439a48.165569 48.165569 0 0 0 0 96.331138h719.533396l-77.763311 77.775353a48.165569 48.165569 0 1 0 68.130198 68.106115l159.969896-159.99398a48.165569 48.165569 0 0 0-0.012041-68.118156 47.864534 47.864534 0 0 0-38.845532-13.642897z" p-id="2729" fill="#e6e6e6"></path></svg>