<?xml version="1.0" standalone="no"?><!DOCTYPE svg PUBLIC "-//W3C//DTD SVG 1.1//EN" "http://www.w3.org/Graphics/SVG/1.1/DTD/svg11.dtd"><svg t="1590564858646" class="icon" viewBox="0 0 1068 1024" version="1.1" xmlns="http://www.w3.org/2000/svg" p-id="3510" xmlns:xlink="http://www.w3.org/1999/xlink" width="208.59375" height="200"><defs><style type="text/css"></style></defs><path d="M460.8 823.466667l74.666667 74.666666c6.4 6.4 6.4 19.2 0 25.6-6.4 6.4-19.2 6.4-25.6 0l-106.666667-106.666666c-6.4-6.4-6.4-19.2 0-25.6 4.266667-4.266667 10.666667-6.4 17.066667-4.266667h245.333333c155.733333 0 281.6-125.866667 281.6-281.6 0-91.733333-42.666667-172.8-108.8-224-8.533333-6.4-10.666667-17.066667-4.266667-25.6 6.4-8.533333 17.066667-10.666667 25.6-4.266667 0 0 2.133333 0 2.133334 2.133334 74.666667 57.6 123.733333 149.333333 123.733333 253.866666 0 177.066667-142.933333 320-320 320l-204.8-4.266666zM682.666667 221.866667H403.2c-155.733333 0-281.6 125.866667-281.6 281.6 0 106.666667 57.6 198.4 145.066667 247.466666 8.533333 4.266667 12.8 14.933333 8.533333 25.6-4.266667 8.533333-14.933333 12.8-25.6 8.533334 0 0-2.133333 0-2.133333-2.133334C149.333333 727.466667 85.333333 622.933333 85.333333 503.466667c0-177.066667 142.933333-320 320-320h238.933334l-72.533334-72.533334c-6.4-8.533333-6.4-19.2 0-25.6 6.4-6.4 19.2-6.4 25.6 0l106.666667 106.666667c10.666667 2.133333 17.066667 12.8 12.8 23.466667-2.133333 10.666667-12.8 17.066667-23.466667 12.8-4.266667-2.133333-8.533333-4.266667-10.666666-6.4z" p-id="3511" fill="#e6e6e6"></path><path d="M588.8 390.4c2.133333 2.133333 2.133333 6.4 2.133333 8.533333v243.2c0 10.666667-8.533333 19.2-19.2 19.2s-19.2-8.533333-19.2-19.2v-198.4L490.666667 503.466667c-6.4 8.533333-19.2 8.533333-25.6 0-8.533333-6.4-8.533333-19.2 0-25.6l91.733333-91.733334c6.4-8.533333 19.2-8.533333 25.6-2.133333 2.133333 0 4.266667 2.133333 6.4 6.4z" p-id="3512" fill="#e6e6e6"></path></svg>